<svg width="40" height="40" viewBox="0 0 40 40" fill="none" xmlns="http://www.w3.org/2000/svg">
<path d="M28.3333 29.9999C26.4833 29.9999 25 31.4833 25 33.3333C25 34.2173 25.3512 35.0652 25.9763 35.6903C26.6014 36.3154 27.4493 36.6666 28.3333 36.6666C29.2174 36.6666 30.0652 36.3154 30.6904 35.6903C31.3155 35.0652 31.6667 34.2173 31.6667 33.3333C31.6667 32.4492 31.3155 31.6014 30.6904 30.9762C30.0652 30.3511 29.2174 29.9999 28.3333 29.9999ZM1.66667 3.33325V6.66659H5.00001L11 19.3166L8.73334 23.3999C8.48334 23.8666 8.33334 24.4166 8.33334 24.9999C8.33334 25.884 8.68453 26.7318 9.30965 27.3569C9.93477 27.9821 10.7826 28.3333 11.6667 28.3333H31.6667V24.9999H12.3667C12.2562 24.9999 12.1502 24.956 12.072 24.8779C11.9939 24.7997 11.95 24.6938 11.95 24.5833C11.95 24.4999 11.9667 24.4333 12 24.3833L13.5 21.6666H25.9167C27.1667 21.6666 28.2667 20.9666 28.8333 19.9499L34.8 9.16659C34.9167 8.89992 35 8.61659 35 8.33325C35 7.89122 34.8244 7.4673 34.5119 7.15474C34.1993 6.84218 33.7754 6.66659 33.3333 6.66659H8.68334L7.11667 3.33325H1.66667ZM11.6667 29.9999C9.81667 29.9999 8.33334 31.4833 8.33334 33.3333C8.33334 34.2173 8.68453 35.0652 9.30965 35.6903C9.93477 36.3154 10.7826 36.6666 11.6667 36.6666C12.5507 36.6666 13.3986 36.3154 14.0237 35.6903C14.6488 35.0652 15 34.2173 15 33.3333C15 32.4492 14.6488 31.6014 14.0237 30.9762C13.3986 30.3511 12.5507 29.9999 11.6667 29.9999Z" fill="black"/>
</svg>
